<?xml version="1.0" encoding="utf-8"?>
<!-- Generator: Adobe Illustrator 27.4.0, SVG Export Plug-In . SVG Version: 6.00 Build 0)  -->
<svg version="1.1" id="Capa_1" xmlns="http://www.w3.org/2000/svg" xmlns:xlink="http://www.w3.org/1999/xlink" x="0px" y="0px"
	 viewBox="0 0 63.9 63.9" style="enable-background:new 0 0 63.9 63.9;" xml:space="preserve">
<g>
	<path d="M31.9,37.6c3.1,0,5.7-2.6,5.7-5.7c0-1.2-0.4-2.4-1.1-3.3c-1-1.4-2.7-2.4-4.6-2.4c-1.9,0-3.6,1-4.6,2.4
		c-0.7,1-1.1,2.1-1.1,3.3C26.2,35.1,28.8,37.6,31.9,37.6z"/>
	<polygon points="44.3,20.2 44.3,19.4 43.7,19.5 38.9,19.5 38.9,25 44.3,25 	"/>
	<path d="M40.8,31.9c0,4.9-4,8.9-8.9,8.9s-8.9-4-8.9-8.9c0-1.2,0.2-2.5,0.7-3.3h-5v13.3c0,1.7,1.5,3.3,3.3,3.3h19.9
		c1.7,0,3.3-1.5,3.3-3.3V28.6h-5C40.6,29.5,40.8,30.8,40.8,31.9z"/>
	<path d="M31.9,0C14.3,0,0,14.3,0,31.9s14.3,31.9,31.9,31.9c17.6,0,31.9-14.3,31.9-31.9S49.6,0,31.9,0z M48.1,28.6L48.1,28.6l0,13.3
		c0,3.5-2.7,6.2-6.2,6.2H22c-3.5,0-6.2-2.7-6.2-6.2V28.6V22c0-3.5,2.7-6.2,6.2-6.2h19.9c3.5,0,6.2,2.7,6.2,6.2V28.6z"/>
</g>
</svg>
