<?xml version="1.0" encoding="utf-8"?>
<!-- Generator: Adobe Illustrator 27.4.0, SVG Export Plug-In . SVG Version: 6.00 Build 0)  -->
<svg version="1.1" id="Capa_1" xmlns="http://www.w3.org/2000/svg" xmlns:xlink="http://www.w3.org/1999/xlink" x="0px" y="0px"
	 viewBox="0 0 63.9 63.9" style="enable-background:new 0 0 63.9 63.9;" xml:space="preserve">
<g>
	<path d="M31.9,0C14.3,0,0,14.3,0,31.9s14.3,31.9,31.9,31.9c17.6,0,31.9-14.3,31.9-31.9S49.6,0,31.9,0z M44.9,47
		c-0.5,0-0.9-0.2-1.4-0.5c-4.6-2.8-10.4-4.3-16.5-4.3c-3.4,0-6.9,0.4-10.1,1.1c-0.5,0.1-1.2,0.3-1.6,0.3c-1.2,0-2-1-2-2
		c0-1.3,0.8-2,1.7-2.2c3.9-0.9,7.9-1.4,12-1.4c7,0,13.2,1.6,18.6,4.8c0.8,0.5,1.3,0.9,1.3,2.1C46.9,46.2,45.9,47,44.9,47z
		 M48.4,38.6c-0.7,0-1.1-0.3-1.6-0.6c-5.2-3.1-12.4-5.1-20.3-5.1c-4,0-7.5,0.6-10.4,1.3c-0.6,0.2-1,0.4-1.6,0.4
		c-1.4,0-2.5-1.1-2.5-2.5c0-1.4,0.7-2.3,2-2.7c3.6-1,7.3-1.7,12.6-1.7c8.4,0,16.4,2.1,22.8,5.9c1.1,0.6,1.5,1.4,1.5,2.5
		C50.9,37.4,49.8,38.6,48.4,38.6z M52.3,28.7c-0.6,0-1-0.2-1.6-0.5c-5.8-3.5-14.8-5.4-23.4-5.4c-4.3,0-8.7,0.4-12.8,1.5
		c-0.5,0.1-1.1,0.3-1.6,0.3c-1.7,0-3-1.3-3-3.1c0-1.7,1.1-2.7,2.2-3.1c4.6-1.3,9.6-2,15.2-2c9.4,0,19.2,1.9,26.5,6.2
		c1,0.6,1.6,1.4,1.6,2.9C55.4,27.5,54,28.7,52.3,28.7z"/>
</g>
</svg>
