<?xml version="1.0" encoding="utf-8"?>
<!-- Generator: Adobe Illustrator 27.5.0, SVG Export Plug-In . SVG Version: 6.00 Build 0)  -->
<svg version="1.1" id="Capa_1" xmlns="http://www.w3.org/2000/svg" xmlns:xlink="http://www.w3.org/1999/xlink" x="0px" y="0px"
	 viewBox="0 0 248.1 91.5" style="enable-background:new 0 0 248.1 91.5;" xml:space="preserve">
<g id="Layer_1">
</g>
<g id="Layer_2">
</g>
<g>
	<g>
		<path d="M89.2,88.5c0-28.3,0-56.5,0-84.7c0.1,0,0.3,0,0.4,0c10.7,0,21.5,0,32.3,0.1c5.2,0,10.2,0.8,15.2,2.4
			c2.2,0.7,4.4,1.5,6.3,2.7c2.8,1.6,5.4,3.5,7.6,5.9c1.7,1.9,3.3,3.9,4.7,5.9c2.5,3.6,4.3,7.6,5.3,11.9c1.4,5.3,1.8,10.6,1.5,16
			c-0.2,4.5-0.8,8.7-2.1,13c-1.3,4.6-3.3,8.7-6.3,12.5c-1.6,2.1-3.5,4-5.6,5.7c-3.5,2.8-7.5,4.7-11.8,6.2c-5.9,2-11.9,2.6-18,2.6
			c-9.7,0-19.4,0-29,0C89.6,88.5,89.4,88.5,89.2,88.5z"/>
	</g>
	<g>
		<path d="M54,69h-42L9.2,58.6L55.5,3.8H68V57h11.9v12H68v18.7H54V69z M54,57V24L26.6,57H54z"/>
	</g>
	<g>
		<path d="M212.9,69h-42l-2.7-10.5l46.3-54.8H227V57h11.9v12H227v18.7h-14.1V69z M212.9,57V24l-27.4,33H212.9z"/>
	</g>
</g>
</svg>
