<?xml version="1.0" encoding="utf-8"?>
<!-- Generator: Adobe Illustrator 27.3.1, SVG Export Plug-In . SVG Version: 6.00 Build 0)  -->
<svg version="1.1" xmlns="http://www.w3.org/2000/svg" xmlns:xlink="http://www.w3.org/1999/xlink" x="0px" y="0px"
	 viewBox="0 0 747 93.2" style="enable-background:new 0 0 747 93.2;" xml:space="preserve">
<g id="Layer_1">
</g>
<g id="Layer_2">
</g>
<g id="Layer_3">
	<g>
		<rect x="422.9" y="2.5" width="22.7" height="88.5"/>
		<polygon points="200.2,2.5 200.2,91.1 249.7,91.1 249.7,71.4 221.9,71.4 221.9,54.8 248.7,54.8 248.7,35.1 221.9,35.1 221.9,22.2 
			249.7,22.2 249.7,2.5 		"/>
		<polygon points="154.1,2.5 137.3,60.4 136.5,60.4 119.3,2.5 89.6,2.5 89.6,91.1 110.5,91.1 110.5,25.1 128.7,91.1 144.3,91.1 
			162.9,25.1 162.9,91.1 183.7,91.1 183.7,2.5 		"/>
		<polygon points="617.6,57.2 582.9,2.5 563.3,2.5 563.3,91.1 584,91.1 584,36.8 617.6,91.1 638.3,91.1 638.3,2.5 617.6,2.5 		"/>
		<polygon points="317.6,57.2 282.9,2.5 263.3,2.5 263.3,91.1 284,91.1 284,36.8 317.6,91.1 338.3,91.1 338.3,2.5 317.6,2.5 		"/>
		<path d="M380.3,35c-12.5-5.1-7.5-16.3-0.5-16.6c7.6-0.3,9.3,6.3,9.4,9.3h21.5c0.1-21.3-15.7-27-30.4-27c-16,0-29.4,9.8-29.4,26.3
			c0,15.9,13.9,21.8,13.9,21.8s17.6,8,19.6,9c3.7,2,5.5,4.4,5.5,7c0,3.7-2.1,9.5-9.1,9.5c-9,0-9.3-9.2-9.4-12.3h-22.5
			c-1.1,23.3,14.6,29.9,30.4,31c14.5,1,32.4-5,32.4-27.4C411.7,54.3,407.4,46,380.3,35z"/>
		<path d="M680.6,35c-12.5-5.1-7.5-16.3-0.5-16.6c7.6-0.3,9.3,6.3,9.4,9.3h21.5c0.1-21.3-15.7-27-30.4-27c-16,0-29.4,9.8-29.4,26.3
			c0,15.9,13.9,21.8,13.9,21.8s17.6,8,19.6,9c3.7,2,5.5,4.4,5.5,7c0,3.7-2.1,9.5-9.1,9.5c-9,0-9.3-9.2-9.4-12.3h-22.5
			c-1.1,23.3,14.6,29.9,30.4,31c14.5,1,32.4-5,32.4-27.4C712,54.3,707.7,46,680.6,35z"/>
		<path d="M504.5,0.4c-25.8,0-46.8,20.8-46.8,46.4c0,25.6,21,46.4,46.8,46.4c25.8,0,46.8-20.8,46.8-46.4
			C551.3,21.2,530.3,0.4,504.5,0.4z M504.5,73.6c-13.2,0-23.9-12-23.9-26.8S491.3,20,504.5,20c13.2,0,23.9,12,23.9,26.8
			S517.7,73.6,504.5,73.6z"/>
		<g>
			<polygon points="715,0 715,4 718.4,4 718.4,17.9 722.8,17.9 722.8,4 726.2,4 726.2,0 			"/>
			<polygon points="741,0 737.6,11.7 737.4,11.7 734.1,0 728.1,0 728.1,17.9 732.4,17.9 732.4,4.7 736.1,17.9 739,17.9 742.8,4.7 
				742.8,17.9 747,17.9 747,0 			"/>
		</g>
		<path d="M0,91C0,61.2,0,31.5,0,1.7c0.1,0,0.3,0,0.4,0c11.3,0,22.7,0,34,0.1c5.5,0,10.8,0.8,16,2.5C52.7,5,55,5.9,57,7.1
			c2.9,1.7,5.7,3.7,8,6.2c1.8,2,3.5,4.1,5,6.2c2.6,3.8,4.5,8,5.6,12.5c1.5,5.6,1.9,11.2,1.6,16.9c-0.2,4.7-0.8,9.2-2.2,13.7
			c-1.4,4.8-3.5,9.2-6.6,13.2c-1.7,2.2-3.7,4.2-5.9,6c-3.7,3-7.9,4.9-12.4,6.5c-6.2,2.1-12.5,2.7-19,2.7c-10.2,0-20.4,0-30.6,0
			C0.4,91,0.2,91,0,91z"/>
	</g>
</g>
</svg>
